<svg id="svg" version="1.1" viewBox="0 0 300 300" width="300" height="300" xmlns="http://www.w3.org/2000/svg"><svg xmlns="http://www.w3.org/2000/svg"><defs><clipPath id="clip-1"><rect x="0" y="0" transform="scale(0.14648,0.14648)" width="2048" height="2048" fill="none"/></clipPath></defs><g clip-path="url(#clip-1)" fill="none" fill-rule="nonzero" stroke="none" stroke-width="1" stroke-linecap="butt" stroke-linejoin="miter" stroke-miterlimit="10" stroke-dasharray="" stroke-dashoffset="0" font-family="none" font-weight="none" font-size="none" text-anchor="none" style="mix-blend-mode: normal"><path d="M149.95313,8.15845c0.50977,0.04583 0.94336,0.48687 1.31104,0.85371c4.30225,4.30655 8.62939,8.61006 12.9375,12.91055l26.38623,26.36689l73.97607,73.83369c5.60303,5.70117 11.23682,11.37041 16.9043,17.00728c2.66162,2.66953 5.57373,5.71934 8.31152,8.27227c-1.62305,1.92334 -4.34473,4.47949 -6.19336,6.3208l-10.26709,10.27588l-33.70605,33.71045l-57.20068,57.20068l-21.7207,21.65332c-3.40283,3.37061 -6.76172,6.84668 -10.22021,10.15723l-0.3252,0.07031c-0.55518,-0.38086 -3.11133,-3.02051 -3.70635,-3.6167l-8.13911,-8.15186l-31.42354,-31.41211l-62.26699,-61.99365l-22.11504,-22.18213c-3.82852,-3.86719 -8.13719,-8.00977 -11.76018,-11.98828c0.94813,-1.2583 3.65867,-3.85503 4.882,-5.07876l9.03164,-9.02812l32.30112,-32.23784l64.10244,-64.21992l18.72451,-18.68218c3.00088,-2.99956 7.09409,-7.34975 10.17612,-10.0415zM131.21704,79.8646c-13.06289,0.25737 -26.22656,-0.12187 -39.29985,0.04966c-2.10571,0.02754 -4.2769,0.03047 -6.38013,-0.01289l0.01802,26.45654c-0.00044,5.06367 -0.08848,10.35059 0.00264,15.39653c-1.3645,1.78271 -5.53418,5.74248 -7.31851,7.55522l-12.53013,12.83848c-1.73848,1.78242 -3.80449,3.72832 -5.46343,5.52129c7.66245,7.40918 15.03604,15.18604 22.66201,22.64063c0.83379,0.81445 1.79048,1.74756 2.55894,2.60596c0.20581,4.34033 0.06387,9.68115 0.06313,14.09766l0.00132,24.8833l30.80186,0.00586c4.43174,-0.00146 9.45381,-0.14209 13.81626,-0.03662c1.6894,1.25684 4.88818,4.3623 6.53013,5.87695l13.01895,12.01025c1.06787,-1.07666 2.14893,-2.1416 3.2417,-3.19189c5.22803,-4.37549 10.68604,-10.04883 15.92285,-14.63379c3.68555,-0.10693 7.57471,-0.02344 11.28516,-0.0249l20.90625,0.00293c3.24902,0.00146 9.87158,0.19922 12.94336,-0.08203c-0.18457,-1.05322 -0.09229,-3.49658 -0.07764,-4.66113c0.0293,-2.31445 0.03955,-4.62891 0.03223,-6.94482l0.01318,-14.44043c-0.02051,-4.06494 -0.12598,-8.52979 0.04248,-12.57129c0.6709,-0.9126 2.23242,-2.39062 3.07617,-3.23291l5.2251,-5.20166c5.71436,-5.70264 11.50195,-11.6543 17.29248,-17.25146c-5.23242,-5.40103 -10.50586,-10.76265 -15.81885,-16.08457c-2.82275,-2.82363 -7.34912,-7.09585 -9.77344,-9.94028c-0.17285,-2.579 -0.06738,-6.3145 -0.06738,-8.98359l-0.01025,-15.45908l0.00146,-11.00449c-0.00293,-1.76733 -0.09961,-4.55757 0.06445,-6.19761c-15.0498,-0.19146 -30.45703,-0.01172 -45.53906,-0.00879c-4.70801,-3.86484 -9.37207,-8.57212 -13.96436,-12.60864c-0.84521,-0.74399 -4.05908,-4.01558 -4.67871,-4.43628c-3.83232,3.65742 -7.71167,7.26533 -11.63701,10.82256c-1.93594,1.7792 -4.93989,4.68662 -6.96138,6.24536z" fill="#066cc0"/><path d="M205.10742,101.08271c-0.0542,1.49854 -0.01611,3.15293 -0.01172,4.66362c-3.05713,-0.33208 -7.02246,-0.00674 -7.85303,3.67515c-0.26807,1.1937 -0.33691,2.58691 -0.3457,3.80684l-0.00732,43.33271l-0.00293,13.52783c0,2.67773 -0.11426,5.38184 0.1582,8.04492c0.49072,4.79883 4.3418,4.72705 8.0083,4.72998c-0.00732,1.53223 0,3.06445 0.01904,4.59668c-1.66699,-0.07617 -3.57129,-0.06006 -5.24121,-0.02783c-9.41309,0.17871 -19.03857,-0.28711 -28.43115,0.05127l-0.01318,-4.61279c0.48926,0.01172 0.97998,0.01318 1.46924,0.00586c5.64844,-0.04395 6.71484,-2.6748 6.54785,-7.82812c-0.25488,-7.88525 0.19629,-15.99463 -0.07617,-23.86963c0.10986,-2.08447 0.03223,-4.66699 0.01904,-6.78721l-0.01465,-10.38325c0.00146,-2.17339 -0.05273,-4.60635 0.15234,-6.74956l-17.92236,37.67051c-1.9043,4.03711 -3.82764,8.06543 -5.77295,12.0835c-0.75879,1.57178 -2.10059,4.54834 -2.96338,5.95166l-7.51392,0.00879c-0.59473,-1.55566 -2.28252,-4.69775 -3.06357,-6.2373l-6.06592,-11.88135l-18.70591,-37.10244l0.03311,32.87344l-0.00088,10.33594c0.00293,2.36133 -0.05728,4.64355 0.19863,6.99756c0.55386,5.09766 4.34487,4.92188 8.29321,4.88525c0.04512,1.51758 0.03149,3.12744 0.04219,4.65234c-1.61353,-0.10107 -3.4002,-0.09814 -5.0187,-0.07617c-8.8541,0.12158 -17.81191,-0.18896 -26.65342,0.06592c-0.02534,-1.51465 -0.0668,-3.0293 -0.01143,-4.54395l0.779,-0.0249c2.14351,-0.07031 4.4439,0.02637 6.02329,-1.71973c0.6627,-0.73242 1.27573,-2.24707 1.32378,-3.19922c0.15117,-3 0.12905,-6.14502 0.12422,-9.14209l-0.07046,-18.06738c0.01479,-9.02241 -0.02109,-18.04541 -0.10737,-27.06797c-0.03076,-4.05718 0.02446,-8.1252 -0.09214,-12.17988c-0.14941,-5.19331 -3.4062,-6.26294 -7.98662,-5.76826c0.02432,-1.55771 0.00366,-3.11587 -0.06211,-4.67256c8.95898,-0.16802 19.38311,-0.20757 28.33081,-0.01084c0.47153,1.25874 2.07949,4.19077 2.73589,5.45303l5.025,9.69712l13.32964,25.78828c2.07144,4.05835 4.6415,8.77134 6.4916,12.83774c8.56494,-17.98008 18.17139,-35.7208 26.49463,-53.78159c9.12451,-0.15791 19.28613,-0.14795 28.40918,-0.0019z" fill="#066cc0"/></g></svg></svg>